# xmcd CD database file
#
# Track frame offsets:
#	150
#	31040
#	54537
#	79657
#	104305
#	129392
#	156205
#	186845
#	214237
#	239067
#	265332
#	286707
#	314082
#
# Disc length: 4584 seconds
#
# Revision: 0
# Processed by: cddbd v1.5.1PL2 Copyright (c) Steve Scherf et al.
# Submitted via: CDex 1.51
#
DISCID=b811e60d
DTITLE=Gerardo Frisina - The Latin Kick
DYEAR=1900
DGENRE=Jazz
TTITLE0=The Gods Of The Yoruba (Belem)
TTITLE1=Bite The Nite
TTITLE2=Cortante
TTITLE3=Gosto De Que E Bom
TTITLE4=Jazz Ally
TTITLE5=Cohete
TTITLE6=African Seeds
TTITLE7=The 7th Day
TTITLE8=Hush
TTITLE9=Latin Seeds
TTITLE10=Batucafro
TTITLE11=Senior Rico
TTITLE12=Tokyo's Dream
EXTD=
EXTT0=
EXTT1=
EXTT2=
EXTT3=
EXTT4=
EXTT5=
EXTT6=
EXTT7=
EXTT8=
EXTT9=
EXTT10=
EXTT11=
EXTT12=
PLAYORDER=
